<svg width="854" height="165" viewBox="0 0 854 165" fill="none" xmlns="http://www.w3.org/2000/svg">
<path fill-rule="evenodd" clip-rule="evenodd" d="M106.511 2.50586L53.2563 51.2999L0 2.50586V107.81H21.6887V51.7771L53.2563 80.7006L84.8239 51.7771V107.81H106.511V2.50586Z" fill="#E7E7E7"/>
<path fill-rule="evenodd" clip-rule="evenodd" d="M213.731 107.811L175.317 2.26697H152.228L113.812 107.811L136.9 107.813L163.773 33.9818L190.647 107.813L213.731 107.811Z" fill="#E7E7E7"/>
<path fill-rule="evenodd" clip-rule="evenodd" d="M282.639 2.34174H260.015L254.293 2.65295L248.746 3.56334L243.403 5.04005L238.301 7.05208L233.471 9.56364L228.944 12.5451L224.755 15.9608L220.935 19.7794L217.519 23.9685L214.539 28.4952L212.026 33.327L210.016 38.4294L208.539 43.7715L207.629 49.3189L207.317 55.0393L207.629 60.7595L208.539 66.3069L210.016 71.649L212.026 76.7516L214.539 81.5817L217.519 86.1084L220.935 90.2974L224.755 94.1177L228.944 97.5333L233.471 100.513L238.301 103.026L243.403 105.037L248.746 106.514L254.293 107.424L260.015 107.735H282.639V86.0399H260.015L254.472 85.5373L249.242 84.0871L244.418 81.7825L240.087 78.7123L236.34 74.9667L233.27 70.6361L230.966 65.8106L229.515 60.5821L229.013 55.0393L229.515 49.4964L230.966 44.2678L233.27 39.4425L236.34 35.1117L240.087 31.3663L244.418 28.2945L249.242 25.9899L254.472 24.5411L260.015 24.037H282.639V2.34174Z" fill="#E7E7E7"/>
<path fill-rule="evenodd" clip-rule="evenodd" d="M342.694 2.50763H305.71V24.1848H342.693L347.789 25.2296L351.979 28.0687L354.819 32.2581L355.864 37.3544L354.818 42.4503L351.979 46.6399L347.789 49.4792L342.693 50.5242H305.71V107.812H327.397V72.2014H342.694L350.475 71.3197L357.651 68.8079L362.448 66.0203L366.727 62.5309L370.407 58.4194L373.408 53.7661L375.651 48.6509L377.055 43.1537L377.541 37.3544L377.083 31.7213L375.757 26.3706L373.636 21.3752L370.795 16.8085L367.305 12.7436L363.24 9.25377L358.674 6.4121L353.678 4.29163L348.327 2.96577L342.694 2.50763Z" fill="#E7E7E7"/>
<path fill-rule="evenodd" clip-rule="evenodd" d="M493.838 54.9988L493.514 49.011L492.57 43.2005L491.034 37.6141L488.942 32.2829L486.328 27.2396L483.227 22.5168L479.668 18.1488L475.689 14.1699L472.144 11.2832V54.9988L471.606 60.9915L470.061 66.623L467.599 71.811L464.314 76.4591L460.301 80.4723L455.653 83.7572L450.463 86.2206L444.828 87.7674L438.84 88.3027L432.851 87.7674L427.216 86.2206L422.028 83.7572L417.38 80.4723L413.367 76.4591L410.082 71.811L407.619 66.623L406.074 60.9915L405.537 54.9988L406.074 49.011L407.619 43.3747L410.082 38.1868L413.367 33.5387L417.38 29.5254L422.028 26.2406L427.216 23.7773L432.851 22.2319L438.84 21.6952L444.828 22.2319L450.463 23.7773L455.653 26.2406L460.301 29.5254L464.314 33.5387L467.599 38.1868L470.061 43.3747L471.607 49.011L472.144 54.9988V11.2832L466.598 7.50815L461.555 4.89548L456.224 2.80404L450.639 1.26817L444.833 0.322L438.84 0L432.848 0.322L427.042 1.26817L421.457 2.80404L416.124 4.89548L411.081 7.50815L406.358 10.611L401.99 14.1699L398.011 18.1488L394.453 22.5168L391.351 27.2396L388.737 32.2829L386.646 37.6141L385.11 43.2005L384.164 49.011L383.842 54.9988L384.164 60.9915L385.11 66.7973L386.646 72.3821L388.737 77.7133L391.351 82.7583L394.453 87.481L398.011 91.849L401.99 95.828L406.358 99.3868L411.081 102.49L416.124 105.102L421.457 107.194L427.042 108.73L432.848 109.676L438.84 109.998L444.833 109.676L450.639 108.73L456.224 107.194L461.555 105.102L466.598 102.49L471.321 99.3868L475.689 95.828L479.668 91.849L482.556 88.3027L483.227 87.481L486.328 82.7583L488.942 77.7133L491.034 72.3821L492.57 66.7973L493.514 60.9915L493.838 54.9988Z" fill="#E7E7E7"/>
<path fill-rule="evenodd" clip-rule="evenodd" d="M596.22 107.813L557.803 2.26697H534.717L550.046 44.3814L538.501 76.0964L511.629 2.26697H488.542L526.958 107.813H550.046L561.589 76.098L573.132 107.813H596.22Z" fill="#E7E7E7"/>
<path fill-rule="evenodd" clip-rule="evenodd" d="M634.636 2.26697H611.548L595.396 46.6456L606.939 78.3621L634.636 2.26697Z" fill="#E7E7E7"/>
<path fill-rule="evenodd" clip-rule="evenodd" d="M798.872 2.4187H761.856V24.1125H798.872L803.972 25.1584L808.165 28.0002L811.007 32.1935L812.053 37.2938L811.007 42.3942L808.165 46.5873L803.972 49.4291L798.872 50.475H761.856V72.1702H790.594L811.907 107.81H837.184L813.841 68.7728L818.642 65.9829L822.925 62.4905L826.608 58.3757L829.612 53.7187L831.857 48.5994L833.262 43.0977L833.749 37.2938L833.29 31.6561L831.963 26.301L829.841 21.3016L826.996 16.7312L823.503 12.663L819.435 9.17036L814.864 6.32636L809.865 4.20418L804.51 2.8772L798.872 2.4187Z" fill="#E7E7E7"/>
<path fill-rule="evenodd" clip-rule="evenodd" d="M709.242 0H636.257V26.02H717.535V8.29183L716.883 5.06396L715.106 2.42827L712.47 0.651478L709.242 0Z" fill="#E7E7E7"/>
<path fill-rule="evenodd" clip-rule="evenodd" d="M727.722 0.135254V45.2934L728.381 51.0114L730.257 56.2605L733.201 60.891L737.063 64.7531L741.694 67.697L746.943 69.5732L752.661 70.2319V25.0737L752.002 19.3556L750.126 14.1065L747.182 9.47605L743.32 5.61397L738.689 2.67L733.44 0.793848L727.722 0.135254Z" fill="#E7E7E7"/>
<path fill-rule="evenodd" clip-rule="evenodd" d="M742.113 81.9802H636.257V108H733.288L736.723 107.307L739.528 105.415L741.419 102.61L742.113 99.1759V81.9802Z" fill="#E7E7E7"/>
<path fill-rule="evenodd" clip-rule="evenodd" d="M709.242 40.9901H636.257V67.0101H709.242L712.47 66.3584L715.106 64.5811L716.883 61.945L717.535 58.7169V49.2819L716.883 46.0541L715.106 43.4184L712.47 41.6416L709.242 40.9901Z" fill="#E7E7E7"/>
<path d="M583.322 154.353H572.783V151.585H576.248V129.979H572.783V127.204H583.322V129.979H579.856V151.585H583.322V154.353ZM594.113 154.353V130.413H584.997V127.204H606.844V130.413H597.728V154.353H594.113ZM628.811 154.844C626.843 154.844 625.168 154.642 623.787 154.239C622.407 153.831 621.109 153.328 619.895 152.73V148.211H620.151C621.342 149.326 622.691 150.192 624.2 150.809C625.709 151.421 627.16 151.727 628.555 151.727C630.548 151.727 632.054 151.312 633.074 150.481C634.099 149.647 634.611 148.548 634.611 147.187C634.611 146.105 634.343 145.225 633.807 144.546C633.271 143.863 632.419 143.358 631.252 143.031C630.417 142.789 629.653 142.589 628.961 142.433C628.268 142.272 627.398 142.058 626.349 141.792C625.415 141.55 624.575 141.242 623.83 140.867C623.09 140.488 622.435 139.994 621.866 139.387C621.306 138.789 620.87 138.087 620.556 137.281C620.248 136.469 620.094 135.535 620.094 134.477C620.094 132.28 620.95 130.437 622.663 128.947C624.38 127.458 626.57 126.713 629.231 126.713C630.749 126.713 632.187 126.865 633.544 127.168C634.901 127.472 636.155 127.904 637.308 128.464V132.783H637.038C636.174 131.996 635.067 131.308 633.715 130.719C632.367 130.126 630.951 129.83 629.466 129.83C627.791 129.83 626.437 130.224 625.403 131.011C624.368 131.794 623.851 132.824 623.851 134.1C623.851 135.253 624.155 136.171 624.762 136.854C625.369 137.532 626.252 138.03 627.409 138.348C628.173 138.552 629.108 138.785 630.213 139.046C631.323 139.306 632.241 139.546 632.967 139.764C634.841 140.338 636.21 141.204 637.073 142.362C637.937 143.515 638.369 144.936 638.369 146.624C638.369 147.682 638.153 148.729 637.721 149.763C637.289 150.792 636.684 151.665 635.906 152.382C635.029 153.174 634.04 153.783 632.939 154.21C631.843 154.633 630.467 154.844 628.811 154.844ZM661.249 130.321C662.279 131.512 663.078 132.99 663.648 134.754C664.222 136.515 664.509 138.526 664.509 140.789C664.509 142.99 664.229 144.978 663.669 146.753C663.114 148.527 662.307 150.014 661.249 151.214C660.144 152.481 658.851 153.416 657.371 154.018C655.896 154.616 654.271 154.915 652.496 154.915C650.66 154.915 649.007 154.607 647.536 153.99C646.066 153.368 644.801 152.443 643.743 151.214C642.7 150.014 641.898 148.534 641.338 146.774C640.778 145.009 640.498 143.014 640.498 140.789C640.498 138.502 640.781 136.498 641.345 134.776C641.91 133.049 642.716 131.564 643.765 130.321C644.808 129.121 646.068 128.207 647.543 127.581C649.024 126.955 650.675 126.642 652.496 126.642C654.342 126.642 656.005 126.964 657.485 127.61C658.97 128.25 660.225 129.154 661.249 130.321ZM660.751 140.789C660.751 138.991 660.557 137.399 660.168 136.014C659.783 134.629 659.238 133.478 658.531 132.563C657.815 131.628 656.949 130.928 655.934 130.463C654.918 129.994 653.777 129.759 652.511 129.759C651.201 129.759 650.055 129.986 649.073 130.442C648.096 130.897 647.23 131.604 646.476 132.563C645.76 133.488 645.209 134.65 644.825 136.05C644.445 137.444 644.256 139.024 644.256 140.789C644.256 144.352 645.003 147.078 646.497 148.966C647.992 150.854 649.996 151.798 652.511 151.798C655.03 151.798 657.032 150.854 658.517 148.966C660.006 147.078 660.751 144.352 660.751 140.789ZM684.202 154.353H668.468V127.204H672.076V151.143H684.202V154.353ZM696.525 154.915C694.931 154.915 693.539 154.706 692.348 154.289C691.157 153.871 690.144 153.247 689.309 152.417C688.361 151.473 687.692 150.342 687.303 149.023C686.914 147.704 686.719 146.076 686.719 144.141V127.204H690.327V144.141C690.327 145.393 690.405 146.449 690.562 147.308C690.723 148.162 691.034 148.93 691.494 149.613C691.978 150.344 692.635 150.897 693.465 151.271C694.3 151.646 695.32 151.834 696.525 151.834C697.655 151.834 698.656 151.646 699.529 151.271C700.406 150.897 701.089 150.344 701.578 149.613C702.029 148.921 702.335 148.154 702.496 147.315C702.662 146.475 702.745 145.448 702.745 144.233V127.204H706.353V144.141C706.353 146.024 706.161 147.642 705.777 148.994C705.397 150.342 704.726 151.483 703.763 152.417C702.899 153.257 701.894 153.883 700.745 154.296C699.597 154.709 698.191 154.915 696.525 154.915ZM717.873 154.353V130.413H708.757V127.204H730.604V130.413H721.488V154.353H717.873ZM742.817 154.353H732.277V151.585H735.743V129.979H732.277V127.204H742.817V129.979H739.351V151.585H742.817V154.353ZM766.467 130.321C767.497 131.512 768.296 132.99 768.865 134.754C769.439 136.515 769.726 138.526 769.726 140.789C769.726 142.99 769.446 144.978 768.887 146.753C768.331 148.527 767.525 150.014 766.467 151.214C765.362 152.481 764.069 153.416 762.589 154.018C761.113 154.616 759.488 154.915 757.714 154.915C755.878 154.915 754.225 154.607 752.754 153.99C751.283 153.368 750.019 152.443 748.961 151.214C747.917 150.014 747.115 148.534 746.556 146.774C745.996 145.009 745.716 143.014 745.716 140.789C745.716 138.502 745.998 136.498 746.563 134.776C747.127 133.049 747.934 131.564 748.982 130.321C750.026 129.121 751.286 128.207 752.761 127.581C754.241 126.955 755.892 126.642 757.714 126.642C759.559 126.642 761.222 126.964 762.702 127.61C764.187 128.25 765.442 129.154 766.467 130.321ZM765.969 140.789C765.969 138.991 765.774 137.399 765.385 136.014C765.001 134.629 764.455 133.478 763.749 132.563C763.032 131.628 762.166 130.928 761.151 130.463C760.136 129.994 758.995 129.759 757.728 129.759C756.419 129.759 755.273 129.986 754.291 130.442C753.314 130.897 752.448 131.604 751.694 132.563C750.977 133.488 750.427 134.65 750.043 136.05C749.663 137.444 749.473 139.024 749.473 140.789C749.473 144.352 750.22 147.078 751.715 148.966C753.209 150.854 755.214 151.798 757.728 151.798C760.247 151.798 762.249 150.854 763.734 148.966C765.224 147.078 765.969 144.352 765.969 140.789ZM793.099 154.353H789.057L777.059 130.94V154.353H773.686V127.204H778.809L789.726 148.702V127.204H793.099V154.353ZM806.173 154.844C804.205 154.844 802.53 154.642 801.149 154.239C799.769 153.831 798.471 153.328 797.257 152.73V148.211H797.513C798.704 149.326 800.053 150.192 801.562 150.809C803.071 151.421 804.522 151.727 805.917 151.727C807.91 151.727 809.416 151.312 810.436 150.481C811.461 149.647 811.973 148.548 811.973 147.187C811.973 146.105 811.705 145.225 811.169 144.546C810.633 143.863 809.781 143.358 808.614 143.031C807.779 142.789 807.016 142.589 806.323 142.433C805.63 142.272 804.76 142.058 803.711 141.792C802.777 141.55 801.937 141.242 801.192 140.867C800.452 140.488 799.797 139.994 799.228 139.387C798.668 138.789 798.232 138.087 797.919 137.281C797.61 136.469 797.456 135.535 797.456 134.477C797.456 132.28 798.312 130.437 800.025 128.947C801.742 127.458 803.932 126.713 806.593 126.713C808.111 126.713 809.549 126.865 810.906 127.168C812.263 127.472 813.518 127.904 814.67 128.464V132.783H814.4C813.537 131.996 812.429 131.308 811.077 130.719C809.729 130.126 808.313 129.83 806.828 129.83C805.153 129.83 803.799 130.224 802.765 131.011C801.731 131.794 801.213 132.824 801.213 134.1C801.213 135.253 801.517 136.171 802.124 136.854C802.732 137.532 803.614 138.03 804.772 138.348C805.535 138.552 806.47 138.785 807.575 139.046C808.686 139.306 809.604 139.546 810.329 139.764C812.203 140.338 813.572 141.204 814.436 142.362C815.299 143.515 815.731 144.936 815.731 146.624C815.731 147.682 815.515 148.729 815.083 149.763C814.651 150.792 814.047 151.665 813.268 152.382C812.391 153.174 811.402 153.783 810.301 154.21C809.205 154.633 807.829 154.844 806.173 154.844Z" fill="#E7E7E7"/>
</svg>
